<svg xmlns="http://www.w3.org/2000/svg" viewBox="0 0 64 64" role="img" aria-label="冰糖葫芦">
  <defs>
    <linearGradient id="bg" x1="10" y1="8" x2="54" y2="56" gradientUnits="userSpaceOnUse">
      <stop offset="0" stop-color="#fff7ef"/>
      <stop offset="1" stop-color="#fff0e0"/>
    </linearGradient>
    <linearGradient id="berry1" x1="31" y1="8" x2="48" y2="27" gradientUnits="userSpaceOnUse">
      <stop offset="0" stop-color="#ffb39c"/>
      <stop offset="0.48" stop-color="#d64a34"/>
      <stop offset="1" stop-color="#8f1f16"/>
    </linearGradient>
    <linearGradient id="berry2" x1="24" y1="20" x2="42" y2="41" gradientUnits="userSpaceOnUse">
      <stop offset="0" stop-color="#ffb59d"/>
      <stop offset="0.45" stop-color="#db4f37"/>
      <stop offset="1" stop-color="#971f16"/>
    </linearGradient>
    <linearGradient id="berry3" x1="14" y1="35" x2="34" y2="58" gradientUnits="userSpaceOnUse">
      <stop offset="0" stop-color="#ffbba2"/>
      <stop offset="0.45" stop-color="#df573c"/>
      <stop offset="1" stop-color="#9e261a"/>
    </linearGradient>
  </defs>
  <rect x="4" y="4" width="56" height="56" rx="14" fill="url(#bg)"/>
  <path d="M17 54 40 10" fill="none" stroke="#6f4d39" stroke-width="3" stroke-linecap="round"/>
  <circle cx="39" cy="15" r="8" fill="url(#berry1)"/>
  <circle cx="33" cy="28" r="9" fill="url(#berry2)"/>
  <circle cx="26" cy="43" r="10" fill="url(#berry3)"/>
  <ellipse cx="36" cy="12" rx="2.5" ry="1.9" fill="#fff7f1" opacity="0.72" transform="rotate(-18 36 12)"/>
  <ellipse cx="29" cy="24" rx="2.8" ry="2.1" fill="#fff5ed" opacity="0.66" transform="rotate(-20 29 24)"/>
  <ellipse cx="21" cy="38" rx="3.1" ry="2.3" fill="#fff3ea" opacity="0.62" transform="rotate(-20 21 38)"/>
  <path d="M49 9l1.2 2.8 2.8 1.2-2.8 1.2-1.2 2.8-1.2-2.8-2.8-1.2 2.8-1.2z" fill="#f4b65c"/>
</svg>
